<svg xmlns="http://www.w3.org/2000/svg" width="22.732" height="21.583" viewBox="0 0 22.732 21.583">
  <path id="Path_55" data-name="Path 55" d="M767.576,2081.117v1.243a1.172,1.172,0,0,0-.039.171,8.962,8.962,0,0,1-1.4,4.181,11.235,11.235,0,0,1-8.2,5.14,12.057,12.057,0,0,1-6.208-.706.324.324,0,0,0-.311.021,9.564,9.564,0,0,1-.972.482,21.939,21.939,0,0,1-5.055,1.446.457.457,0,0,1-.549-.256v-.223a6.107,6.107,0,0,0,.792-1.141,12.127,12.127,0,0,0,.988-3.913.749.749,0,0,0-.148-.552,9.419,9.419,0,0,1-1.442-3.405c-.089-.426-.112-.861-.19-1.289v-1.2c.048-.334.083-.671.147-1a9.867,9.867,0,0,1,4.07-6.3,11.908,11.908,0,0,1,8.6-2.2,11.494,11.494,0,0,1,6.887,3.2,9.733,9.733,0,0,1,2.834,5.044c.09.418.116.845.2,1.264m-16.66,2.14a1.513,1.513,0,1,0-1.523-1.494,1.52,1.52,0,0,0,1.523,1.494m10.569,0a1.512,1.512,0,1,0-1.485-1.531,1.515,1.515,0,0,0,1.485,1.531m-5.3,0a1.512,1.512,0,0,0,.059-3.023,1.512,1.512,0,0,0-.059,3.023" transform="translate(-744.844 -2071.524)" fill="#3a853f"/>
</svg>
