<svg xmlns="http://www.w3.org/2000/svg" width="20.103" height="20.102" viewBox="0 0 20.103 20.102">
  <g id="Group_11" data-name="Group 11" transform="translate(-272.341 -548.195)">
    <path id="Path_22" data-name="Path 22" d="M275.693,550.206c0-.257-.005-.48,0-.7a1.339,1.339,0,0,1,2.677,0c.006.223,0,.446,0,.686h2.681c0-.2,0-.4,0-.594a1.341,1.341,0,1,1,2.68,0c0,.194,0,.388,0,.595h2.681c0-.228-.006-.462,0-.695a1.335,1.335,0,0,1,1.889-1.181,1.289,1.289,0,0,1,.785,1.168c.014.229,0,.46,0,.685.086.059.172.031.253.034a13.184,13.184,0,0,1,1.734.039,1.625,1.625,0,0,1,1.361,1.6q.01,4.346,0,8.69c0,.242-.139.394-.341.39s-.328-.154-.328-.4q0-2.68,0-5.36v-.256H273.039c-.051.068-.026.147-.026.221q0,5.014,0,10.029a1.022,1.022,0,0,0,1.124,1.131q4.543,0,9.087,0a1.323,1.323,0,0,1,.209.005.322.322,0,0,1,.3.323.328.328,0,0,1-.3.339,1.323,1.323,0,0,1-.167,0q-4.575,0-9.151,0a1.673,1.673,0,0,1-1.765-1.757q0-6.618,0-13.234a1.674,1.674,0,0,1,1.763-1.76h1.588m2.679.675c0,.213,0,.407,0,.6a1.341,1.341,0,1,1-2.68,0c0-.2,0-.4,0-.609-.559,0-1.088,0-1.618,0a1.007,1.007,0,0,0-1.062,1.065q0,1.047,0,2.094c0,.06-.02.126.022.174h18.738c0-.8.008-1.58,0-2.362a.955.955,0,0,0-.862-.953c-.6-.038-1.2-.009-1.815-.009,0,.217,0,.425,0,.632a1.34,1.34,0,1,1-2.68,0c0-.207,0-.414,0-.622h-2.681c0,.237.005.459,0,.682a1.339,1.339,0,0,1-2.677-.011c-.009-.226,0-.454,0-.681Zm-2.01-.361c0,.328,0,.656,0,.984a.67.67,0,1,0,1.339.009q.006-.972,0-1.946a.67.67,0,1,0-1.339.011c0,.314,0,.628,0,.942m5.36,0c0,.328,0,.656,0,.984a.67.67,0,1,0,1.339.005q0-.973,0-1.947a.67.67,0,1,0-1.338-.005c0,.322,0,.642,0,.963m5.361.005v1.005a.67.67,0,1,0,1.339-.005q.006-.984,0-1.967a.67.67,0,1,0-1.338,0c0,.321,0,.642,0,.963" fill="#3a853f"/>
    <path id="Path_23" data-name="Path 23" d="M288.106,568.3a4.355,4.355,0,1,1,4.337-4.374,4.358,4.358,0,0,1-4.337,4.374m3.667-4.35a3.685,3.685,0,1,0-3.675,3.681,3.689,3.689,0,0,0,3.675-3.681" fill="#3a853f"/>
    <path id="Path_24" data-name="Path 24" d="M276.356,558.916c-.216,0-.433,0-.649,0a.665.665,0,0,1-.683-.671c-.006-.335-.007-.67,0-1a.659.659,0,0,1,.664-.667q.671-.011,1.34,0a.662.662,0,0,1,.673.68q.009.492,0,.984a.664.664,0,0,1-.675.678c-.223.005-.447,0-.67,0m.662-1.659H275.7v.979h1.315Z" fill="#3a853f"/>
    <path id="Path_25" data-name="Path 25" d="M280.4,556.572c.216,0,.432-.005.648,0a.665.665,0,0,1,.669.664c.007.342.008.684,0,1.026a.658.658,0,0,1-.657.652q-.68.012-1.361,0a.661.661,0,0,1-.657-.653c-.008-.349-.009-.7,0-1.046a.657.657,0,0,1,.646-.642c.237-.008.474,0,.712,0m-.676,1.664h1.313v-.987h-1.313Z" fill="#3a853f"/>
    <path id="Path_26" data-name="Path 26" d="M284.422,556.571c.217,0,.433,0,.649,0a.664.664,0,0,1,.67.662c.008.342.009.684,0,1.026a.659.659,0,0,1-.656.654q-.68.012-1.36,0a.663.663,0,0,1-.66-.672c-.006-.335-.007-.67,0-1.005a.663.663,0,0,1,.667-.665c.23-.006.46,0,.69,0m.64.683h-1.314v.983h1.314Z" fill="#3a853f"/>
    <path id="Path_27" data-name="Path 27" d="M288.417,558.916c-.216,0-.433,0-.649,0a.666.666,0,0,1-.683-.671q-.009-.5,0-1.005a.659.659,0,0,1,.665-.666q.669-.011,1.34,0a.664.664,0,0,1,.673.68q.008.492,0,.984a.664.664,0,0,1-.675.678c-.223.005-.447,0-.67,0m-.656-.686h1.321v-.975h-1.321Z" fill="#3a853f"/>
    <path id="Path_28" data-name="Path 28" d="M276.383,559.587c.216,0,.432-.005.649,0a.664.664,0,0,1,.669.663c.007.342.008.684,0,1.025a.658.658,0,0,1-.657.653q-.68.012-1.36,0a.659.659,0,0,1-.658-.652c-.009-.342-.008-.684,0-1.026a.661.661,0,0,1,.668-.663c.23-.006.46,0,.691,0m.638.683h-1.313v.981h1.313Z" fill="#3a853f"/>
    <path id="Path_29" data-name="Path 29" d="M280.378,559.587c.223,0,.446,0,.669,0a.668.668,0,0,1,.675.68q.008.492,0,.984a.663.663,0,0,1-.675.679c-.446.006-.893.007-1.339,0a.663.663,0,0,1-.664-.668q-.009-.5,0-1.005a.661.661,0,0,1,.663-.668c.223-.006.446,0,.67,0m.664.683h-1.314v.983h1.314Z" fill="#3a853f"/>
    <path id="Path_30" data-name="Path 30" d="M276.359,564.947c-.223,0-.447.005-.67,0a.666.666,0,0,1-.665-.668c-.007-.335-.006-.67,0-1.005a.66.66,0,0,1,.682-.67c.44-.005.879-.006,1.319,0a.664.664,0,0,1,.676.678c.006.327.006.656,0,.983a.666.666,0,0,1-.693.682c-.216,0-.433,0-.649,0m-.662-.683h1.321v-.975H275.7Z" fill="#3a853f"/>
    <path id="Path_31" data-name="Path 31" d="M280.389,564.947c-.224,0-.447,0-.67,0a.667.667,0,0,1-.675-.68q-.008-.492,0-.983a.662.662,0,0,1,.673-.68c.447-.006.894-.007,1.34,0a.661.661,0,0,1,.664.667q.01.5,0,1.005a.666.666,0,0,1-.684.67c-.216,0-.432,0-.648,0m-.663-.684h1.311v-.987h-1.311Z" fill="#3a853f"/>
    <path id="Path_32" data-name="Path 32" d="M283.741,560.256v.988c.038.015.077.028.114.045a.312.312,0,0,1,.2.391.325.325,0,0,1-.363.25.664.664,0,0,1-.622-.624c-.013-.362-.013-.726,0-1.089a.643.643,0,0,1,.616-.625c.461-.014.922-.009,1.382,0a.333.333,0,1,1-.005.665c-.432.006-.864,0-1.319,0" fill="#3a853f"/>
    <path id="Path_33" data-name="Path 33" d="M287.427,565.154c.236-.243.452-.469.672-.691q.922-.927,1.849-1.85a.413.413,0,0,1,.343-.167.333.333,0,0,1,.259.485.819.819,0,0,1-.147.176l-2.648,2.648c-.266.266-.4.267-.666.007q-.645-.644-1.287-1.288a.338.338,0,1,1,.471-.476c.377.373.749.75,1.154,1.156" fill="#3a853f"/>
  </g>
</svg>
