<svg xmlns="http://www.w3.org/2000/svg" width="21.444" height="21.443" viewBox="0 0 21.444 21.443">
  <g id="Group_12" data-name="Group 12" transform="translate(-271.671 -608.925)">
    <path id="Path_34" data-name="Path 34" d="M271.671,628.274c.034-.127.064-.255.1-.38a2.507,2.507,0,0,1,1.156-1.455c.048-.028.1-.054.145-.083.011-.007.017-.022.025-.033a2.3,2.3,0,1,1,3.969.017,2.912,2.912,0,0,1,.771.559c.737-1.318.948-1.535,1.992-2.049a3.1,3.1,0,0,1-.406-2.693,3.025,3.025,0,0,1,1.207-1.636,3.113,3.113,0,0,1,4.323,4.336,3.568,3.568,0,0,1,1.2.808,3.608,3.608,0,0,1,.774,1.247,2.88,2.88,0,0,1,.789-.572,2.321,2.321,0,0,1-.2-1.919,2.221,2.221,0,0,1,.883-1.161,2.294,2.294,0,0,1,2.746.126,2.322,2.322,0,0,1,.529,2.946c.033.021.066.046.1.066a2.488,2.488,0,0,1,1.3,1.8.345.345,0,0,0,.035.073v2.094h-8.963c-.258-.169-.344-.336-.277-.543s.224-.295.54-.295c.544,0,1.088,0,1.633,0,.073,0,.153.026.23-.041,0-.46,0-.927,0-1.393,0-.126-.011-.251-.024-.376a2.55,2.55,0,0,0-1.785-2.14.32.32,0,0,0-.308.05,3.073,3.073,0,0,1-3.534,0,.313.313,0,0,0-.308-.05,2.489,2.489,0,0,0-1.719,1.791,10,10,0,0,0-.1,2.16h1.992a.42.42,0,0,1,.349.67c-.054.079-.146.1-.21.167h-8.963Zm10.713-2.928a2.266,2.266,0,1,0-2.258-2.284,2.264,2.264,0,0,0,2.258,2.284m-9.878,4.171h5.159c0-.346.009-.68,0-1.014a1.637,1.637,0,0,0-1.064-1.449.276.276,0,0,0-.27.028,2.241,2.241,0,0,1-2.471,0,.287.287,0,0,0-.29-.025,1.619,1.619,0,0,0-1.021,1.211,8.16,8.16,0,0,0-.041,1.247m19.754,0a9.2,9.2,0,0,0-.009-1.152,1.581,1.581,0,0,0-1.036-1.309.287.287,0,0,0-.29.026,2.242,2.242,0,0,1-2.468,0,.287.287,0,0,0-.29-.023,1.611,1.611,0,0,0-1,1.129,6.416,6.416,0,0,0-.053,1.331Zm-2.568-2.912a1.452,1.452,0,1,0-1.453-1.443,1.448,1.448,0,0,0,1.453,1.443m-14.6,0a1.452,1.452,0,1,0-1.455-1.461,1.445,1.445,0,0,0,1.455,1.461" fill="#3a853f"/>
    <path id="Path_35" data-name="Path 35" d="M293.115,615.793a3.356,3.356,0,0,1-.145.343,1.139,1.139,0,0,1-.973.629c-.319.016-.64,0-.951,0a.541.541,0,0,0-.047.325c-.008.454-.013.907-.012,1.361a.434.434,0,0,1-.24.449.454.454,0,0,1-.487-.08c-.882-.649-1.767-1.293-2.648-1.943a.518.518,0,0,0-.327-.107c-.991,0-1.982.005-2.973,0a.339.339,0,0,0-.324.167c-.388.579-.786,1.152-1.181,1.727-.263.381-.566.381-.827,0-.4-.58-.8-1.159-1.193-1.744a.3.3,0,0,0-.291-.151q-1.5.008-2.993,0a.516.516,0,0,0-.327.107c-.87.641-1.745,1.276-2.615,1.917a.479.479,0,0,1-.54.1.462.462,0,0,1-.222-.481c0-.536,0-1.071,0-1.611a2.946,2.946,0,0,0-.634-.026,1.285,1.285,0,0,1-1.494-.983V609.93a1.594,1.594,0,0,1,.362-.662,1.976,1.976,0,0,1,.6-.343h19.516a1.36,1.36,0,0,1,.964,1.005Zm-2.947,1.92c0-.462,0-.865,0-1.268,0-.363.147-.5.512-.507s.753,0,1.13,0c.342,0,.466-.128.466-.47v-5.233c0-.343-.126-.471-.464-.471h-18.84c-.338,0-.463.127-.463.471v5.233c0,.343.123.467.465.469.384,0,.768,0,1.152,0,.337,0,.483.15.491.485.006.258.007.517.009.775,0,.155,0,.31,0,.5.1-.072.161-.11.216-.151.659-.481,1.32-.96,1.974-1.448a.823.823,0,0,1,.523-.168c.983.005,1.967,0,2.951,0s.754-.095,1.306.693c.263.375.52.754.791,1.149.056-.075.1-.128.136-.183.309-.449.626-.891.92-1.348a.645.645,0,0,1,.61-.315c1.13.008,2.261.006,3.391,0a.852.852,0,0,1,.54.18c.7.524,1.415,1.037,2.183,1.6" fill="#3a853f"/>
    <path id="Path_36" data-name="Path 36" d="M282.267,630.367l-.1-.069a.4.4,0,0,1-.171-.471.414.414,0,0,1,.793,0,.4.4,0,0,1-.17.471l-.1.069Z" fill="#3a853f"/>
    <path id="Path_37" data-name="Path 37" d="M285.054,611.265h5.275c.07,0,.14,0,.209,0a.412.412,0,0,1,.079.811.907.907,0,0,1-.227.022H279.735a.715.715,0,0,1-.268-.031.414.414,0,0,1,.1-.8c.076-.007.153,0,.23,0h5.254" fill="#3a853f"/>
    <path id="Path_38" data-name="Path 38" d="M279.719,614.439h-5.275c-.383,0-.582-.14-.589-.412s.195-.426.592-.426H285a1.933,1.933,0,0,1,.229.007.411.411,0,0,1,.038.812,1.352,1.352,0,0,1-.27.017h-5.275" fill="#3a853f"/>
    <path id="Path_39" data-name="Path 39" d="M288.954,613.6c.516,0,1.031,0,1.547,0a.406.406,0,0,1,.386.238.394.394,0,0,1-.037.416.41.41,0,0,1-.358.179c-1.024,0-2.048.007-3.073,0a.416.416,0,1,1,.009-.83c.509-.006,1.017,0,1.526,0Z" fill="#3a853f"/>
    <path id="Path_40" data-name="Path 40" d="M275.83,611.265c.5,0,.99,0,1.485,0,.306,0,.489.162.486.421a.419.419,0,0,1-.475.415q-1.494,0-2.99,0a.436.436,0,0,1-.474-.352.422.422,0,0,1,.257-.455.63.63,0,0,1,.247-.029h1.464" fill="#3a853f"/>
  </g>
</svg>
