<svg xmlns="http://www.w3.org/2000/svg" width="21.442" height="21.406" viewBox="0 0 21.442 21.406">
  <g id="Group_13" data-name="Group 13" transform="translate(-271.672 -670.996)">
    <path id="Path_41" data-name="Path 41" d="M271.672,689.627a7.028,7.028,0,0,1,.986-2.287,8.131,8.131,0,0,1,3.766-3.109l.226-.093a4.237,4.237,0,0,1-1.314-3.813,4.141,4.141,0,0,1,1.821-2.866,4.29,4.29,0,0,1,6.369,1.93,8.481,8.481,0,0,1,1.8-.972,4.257,4.257,0,0,1-1.289-4.014,4.037,4.037,0,0,1,1.524-2.478,4.272,4.272,0,0,1,5.545,6.494c.222.1.439.205.655.308a6.987,6.987,0,0,1,.937.55.839.839,0,0,1,.276,1.184.827.827,0,0,1-1.179.219,6.352,6.352,0,0,0-2.128-.943,6.228,6.228,0,0,0-5.781,1.531.3.3,0,0,0-.1.2,4.193,4.193,0,0,1-1.288,2.608.682.682,0,0,0-.06.078c.209.1.409.186.607.281a7.36,7.36,0,0,1,.976.567.841.841,0,0,1,.293,1.181.827.827,0,0,1-1.192.225,6.2,6.2,0,0,0-2.15-.947,6.437,6.437,0,0,0-6.078,1.765,5.878,5.878,0,0,0-1.46,2.315.849.849,0,0,0,.854,1.216q3.549,0,7.1,0a.842.842,0,0,1,.9.651.787.787,0,0,1-.763.983c-2.47,0-4.941,0-7.412,0a2.356,2.356,0,0,1-2.158-1.331,3.58,3.58,0,0,1-.281-.848ZM282.141,681a2.6,2.6,0,1,0-2.6,2.589,2.6,2.6,0,0,0,2.6-2.589m8.669-5.734a2.6,2.6,0,1,0-2.6,2.589,2.6,2.6,0,0,0,2.6-2.589" fill="#3a853f"/>
    <path id="Path_42" data-name="Path 42" d="M289.973,689.291c0,.737,0,1.448,0,2.158a1.18,1.18,0,0,1-.016.292c-.108.422-.345.72-1.022.651a.8.8,0,0,1-.632-.781c-.01-.69,0-1.381,0-2.071v-.224a.734.734,0,0,0-.3-.024c-.635,0-1.269,0-1.9,0a.842.842,0,1,1-.009-1.675c.655,0,1.311,0,1.967,0h.219a.417.417,0,0,0,.03-.241c0-.662,0-1.325,0-1.988a.84.84,0,1,1,1.674.008c0,.732,0,1.463,0,2.188a.381.381,0,0,0,.237.031c.663,0,1.325,0,1.988,0a.84.84,0,1,1,0,1.674c-.732,0-1.464,0-2.224,0" fill="#3a853f"/>
  </g>
</svg>
