<svg xmlns="http://www.w3.org/2000/svg" width="30.566" height="30.583" viewBox="0 0 30.566 30.583">
  <g id="Group_4" data-name="Group 4" transform="translate(-1515.383 -137.78)">
    <path id="Path_5" data-name="Path 5" d="M1530.671,168.363q-3.291,0-6.582,0a5.447,5.447,0,0,1-5.427-5.425q0-3.276,0-6.549a1.08,1.08,0,0,1,.712-1.058,1.069,1.069,0,0,1,1.182.292,1.2,1.2,0,0,1,.29.847q-.008,3.205,0,6.412a3.256,3.256,0,0,0,3.311,3.3q6.513,0,13.027,0a3.254,3.254,0,0,0,3.312-3.294q0-3.241,0-6.481a1.088,1.088,0,0,1,2.142-.319,1.781,1.781,0,0,1,.038.439q0,3.222,0,6.445a5.449,5.449,0,0,1-5.425,5.394q-3.291,0-6.582,0" fill="#4d4d4d"/>
    <path id="Path_6" data-name="Path 6" d="M1530.621,140.387a2.882,2.882,0,0,1-.24.325q-6.495,6.505-12.991,13.007a1.158,1.158,0,0,1-1.219.4,1.086,1.086,0,0,1-.521-1.758c.059-.068.125-.131.189-.195q6.959-6.96,13.917-13.916a1.118,1.118,0,0,1,1.824-.007q6.984,6.982,13.964,13.965a1.1,1.1,0,1,1-1.535,1.563q-2.043-2.057-4.1-4.1-4.508-4.512-9.016-9.023c-.064-.064-.131-.125-.275-.263" fill="#4d4d4d"/>
  </g>
</svg>
