<svg xmlns="http://www.w3.org/2000/svg" width="46.125" height="46.125" viewBox="0 0 46.125 46.125">
  <g id="Group_22" data-name="Group 22" transform="translate(-1163.255 -2674.285)">
    <path id="Path_57" data-name="Path 57" d="M1179.561,2720.41q0-15.087.005-30.173v-.6h9.178v4.146c.2,0,.218-.124.267-.205a9.7,9.7,0,0,1,7.221-4.6,14.539,14.539,0,0,1,5.629.313,8.777,8.777,0,0,1,6.615,6.453,21.378,21.378,0,0,1,.815,4.915,2.854,2.854,0,0,0,.089.748v19.009h-9.549q0-8.037-.011-16.074a17.661,17.661,0,0,0-.262-3c-.425-2.44-1.724-3.813-4.034-4.028-3.144-.291-5.361.97-6.074,4.262a17.533,17.533,0,0,0-.333,3.712q0,7.564-.007,15.128Z" fill="#fff"/>
    <path id="Path_58" data-name="Path 58" d="M1163.976,2720.41c.012-.209.035-.417.035-.626q0-14.75,0-29.5a1.56,1.56,0,0,1,.054-.647h9.445c.135.181.07.4.07.6q0,14.773,0,29.546c0,.209.019.418.028.627Z" fill="#fff"/>
    <path id="Path_59" data-name="Path 59" d="M1169.471,2674.285c.416.117.842.206,1.247.356a5.536,5.536,0,0,1,3.518,6.231,5.532,5.532,0,0,1-10.883.017c-.026-.131-.065-.259-.1-.388v-1.351c.029-.1.066-.2.086-.3a5.551,5.551,0,0,1,2.189-3.5,6.6,6.6,0,0,1,2.59-1.071Z" fill="#fff"/>
  </g>
</svg>
