<svg xmlns="http://www.w3.org/2000/svg" width="20.675" height="20.637" viewBox="0 0 20.675 20.637">
  <g id="Group_15" data-name="Group 15" transform="translate(-272.055 -857.296)">
    <path id="Path_50" data-name="Path 50" d="M290.668,867.531a8.272,8.272,0,0,0-2.835-6.241,1.1,1.1,0,0,1-.42-1.154,1.017,1.017,0,0,1,1.662-.5,10.1,10.1,0,0,1,2.275,2.736A10.41,10.41,0,0,1,285,877.6a10.375,10.375,0,0,1-10.817-16.3,8.976,8.976,0,0,1,1.475-1.593,1.032,1.032,0,1,1,1.383,1.532,8.331,8.331,0,0,0,3.976,14.5,8.228,8.228,0,0,0,9.525-6.77,11.83,11.83,0,0,0,.127-1.431" fill="#3a853f"/>
    <path id="Path_51" data-name="Path 51" d="M283.437,862.511c0,1.37.007,2.739,0,4.108a1.021,1.021,0,0,1-1.359,1,1.01,1.01,0,0,1-.689-.9c-.012-.249-.006-.5-.006-.749q0-3.746,0-7.492a1.253,1.253,0,0,1,.134-.653,1.038,1.038,0,0,1,1.138-.494,1.014,1.014,0,0,1,.783,1.006c.007,1.394,0,2.787,0,4.181" fill="#3a853f"/>
  </g>
</svg>
