<svg xmlns="http://www.w3.org/2000/svg" width="22.86" height="22.497" viewBox="0 0 22.86 22.497">
  <g id="Group_10" data-name="Group 10" transform="translate(-270.963 -485.069)">
    <path id="Path_18" data-name="Path 18" d="M270.963,506.106c.317-.92.631-1.841.953-2.759a.337.337,0,0,0-.043-.273,7.036,7.036,0,0,1,1.979-8.279.623.623,0,0,0,.248-.5,9.659,9.659,0,0,1,10.025-9.22,9.655,9.655,0,0,1,8.387,13.694.523.523,0,0,0-.016.424q.619,1.779,1.228,3.561a1.491,1.491,0,0,1-1.073,2.025,1.6,1.6,0,0,1-.9-.079c-1.173-.406-2.348-.8-3.52-1.214a.587.587,0,0,0-.485.025,9.209,9.209,0,0,1-3.531.854.434.434,0,0,0-.352.184,6.927,6.927,0,0,1-6.4,2.666,5.973,5.973,0,0,1-1.908-.515.639.639,0,0,0-.528-.021c-.7.257-1.432.458-2.124.744a1.344,1.344,0,0,1-1.943-.872Zm12.824-19.672c-.373.019-.715.018-1.056.06a7.916,7.916,0,0,0-3.583,1.327,8.175,8.175,0,0,0-3.605,5.688,7.982,7.982,0,0,0,.126,3.1,8.358,8.358,0,0,0,7.217,6.365,8.11,8.11,0,0,0,4.626-.859.928.928,0,0,1,.772-.05c.728.258,1.461.5,2.192.755.576.2,1.151.4,1.728.6.076.026.163.064.229-.012s.026-.142,0-.213c-.015-.05-.034-.1-.051-.147-.432-1.258-.862-2.517-1.3-3.772a.9.9,0,0,1,.036-.752A8.263,8.263,0,0,0,291,490.73a8.245,8.245,0,0,0-3.809-3.539,8.046,8.046,0,0,0-3.4-.757m-11.395,19.718c.836-.287,1.634-.544,2.418-.838a1.264,1.264,0,0,1,1.106.053,5.1,5.1,0,0,0,2.392.542,5.567,5.567,0,0,0,3.819-1.48c.045-.041.117-.067.117-.122a9.842,9.842,0,0,1-8.059-7.955.375.375,0,0,0-.051.04,5.508,5.508,0,0,0-1.121,1.808,5.576,5.576,0,0,0,.2,4.5,1.125,1.125,0,0,1,.05.939c-.3.815-.568,1.642-.866,2.512" fill="#3a853f"/>
    <path id="Path_19" data-name="Path 19" d="M283.737,493.916q1.986,0,3.972,0a.69.69,0,0,1,.767.686.662.662,0,0,1-.532.654,1.672,1.672,0,0,1-.332.026h-7.743c-.538,0-.863-.261-.86-.688s.326-.68.868-.68h3.86" fill="#3a853f"/>
    <path id="Path_20" data-name="Path 20" d="M283.751,492.481c-1.339,0-2.678,0-4.017,0a.679.679,0,0,1-.678-.923.633.633,0,0,1,.509-.419,1.946,1.946,0,0,1,.333-.019h7.7c.067,0,.134,0,.2,0a.679.679,0,1,1-.03,1.358c-.365,0-.729,0-1.094,0Z" fill="#3a853f"/>
    <path id="Path_21" data-name="Path 21" d="M282.179,498.075c-.826,0-1.652.006-2.477,0a.669.669,0,0,1-.65-.906.676.676,0,0,1,.658-.443c.714,0,1.428,0,2.142,0,.938,0,1.875-.005,2.813,0a.677.677,0,1,1-.031,1.352q-1.227,0-2.455,0" fill="#3a853f"/>
  </g>
</svg>
