<svg xmlns="http://www.w3.org/2000/svg" width="21.442" height="21.443" viewBox="0 0 21.442 21.443">
  <g id="Group_9" data-name="Group 9" transform="translate(-271.672 -422.998)">
    <path id="Path_8" data-name="Path 8" d="M291.146,444.441H273.64a.666.666,0,0,0-.093-.037,2.231,2.231,0,0,1-1.764-1.534c-.045-.13-.074-.265-.111-.4V428.234a.532.532,0,0,1,.568-.3c.166.015.334,0,.5,0h.773v-2.118c0-.432.131-.562.561-.562s.844,0,1.281,0c0-.582.011-1.139,0-1.694a.56.56,0,0,1,.3-.569h17.463v19.475c-.042.035-.032.088-.042.135a2.249,2.249,0,0,1-1.549,1.73c-.123.042-.251.069-.377.1m-15.459-.838h15.058a1.43,1.43,0,0,0,1.532-1.529q0-9,0-18.006c0-.073.024-.153-.021-.215H276.2v8.705a2.2,2.2,0,0,1,0,.23.416.416,0,0,1-.831-.01c-.006-.069,0-.139,0-.209q0-3.109,0-6.219a.4.4,0,0,0-.025-.242h-.979v15.476c0,.4-.145.6-.425.594s-.412-.2-.412-.586q0-6.27,0-12.54a.476.476,0,0,0-.024-.264h-.979v13.258c0,.069,0,.138,0,.209a1.423,1.423,0,0,0,2.844-.1c.005-1.814,0-3.63,0-5.444,0-.069,0-.139,0-.209a.417.417,0,0,1,.833.008c.005.062,0,.125,0,.188,0,1.717-.009,3.434.005,5.15a2.62,2.62,0,0,1-.513,1.751" fill="#3a853f"/>
    <path id="Path_9" data-name="Path 9" d="M284.239,425.762h6.3c.433,0,.566.132.566.559q0,1.381,0,2.762c0,.386-.145.532-.53.532H277.892c-.375,0-.523-.147-.524-.517q0-1.413,0-2.825c0-.358.152-.51.509-.51h6.362m6.018.852H278.222v2.152h12.035Z" fill="#3a853f"/>
    <path id="Path_10" data-name="Path 10" d="M284.655,435.226v3.892c0,.412-.138.548-.556.548q-3.087,0-6.173,0c-.426,0-.558-.134-.558-.566v-7.744c0-.44.129-.568.576-.568H284.1c.426,0,.558.134.558.566v3.872m-6.436,3.587h5.587v-7.177h-5.587Z" fill="#3a853f"/>
    <path id="Path_11" data-name="Path 11" d="M284.255,440.839h6.257a1.765,1.765,0,0,1,.23.006.416.416,0,0,1,0,.825,1.6,1.6,0,0,1-.23.006H277.959c-.393,0-.6-.148-.59-.429s.2-.409.587-.409Z" fill="#3a853f"/>
    <path id="Path_12" data-name="Path 12" d="M288.444,431.626q-1.056,0-2.111,0c-.316,0-.511-.17-.505-.429s.2-.408.505-.408q2.131,0,4.264,0c.308,0,.5.156.505.408s-.19.428-.505.429q-1.077,0-2.153,0" fill="#3a853f"/>
    <path id="Path_13" data-name="Path 13" d="M288.462,433.636c-.725,0-1.449,0-2.174,0a.419.419,0,1,1-.015-.835c.523,0,1.046,0,1.568,0q1.391,0,2.781,0a.421.421,0,1,1,.014.836c-.725,0-1.449,0-2.174,0" fill="#3a853f"/>
    <path id="Path_14" data-name="Path 14" d="M288.456,435.646c-.725,0-1.449,0-2.174,0a.417.417,0,0,1-.4-.616.41.41,0,0,1,.378-.219q2.207,0,4.411,0a.414.414,0,0,1,.432.416.419.419,0,0,1-.451.418c-.732,0-1.463,0-2.2,0" fill="#3a853f"/>
    <path id="Path_15" data-name="Path 15" d="M288.487,436.819q1.056,0,2.111,0c.308,0,.5.158.5.409s-.19.428-.505.428q-2.133,0-4.265,0c-.308,0-.5-.157-.5-.409s.19-.427.506-.428q1.077,0,2.153,0" fill="#3a853f"/>
    <path id="Path_16" data-name="Path 16" d="M288.477,438.829c.725,0,1.449,0,2.174,0a.418.418,0,0,1,.082.832.737.737,0,0,1-.105,0q-2.163,0-4.327,0a.428.428,0,0,1-.471-.377.421.421,0,0,1,.348-.452,1.321,1.321,0,0,1,.209-.007h2.09" fill="#3a853f"/>
    <path id="Path_17" data-name="Path 17" d="M276.21,434.649a.413.413,0,1,1-.4-.425.414.414,0,0,1,.4.425" fill="#3a853f"/>
  </g>
</svg>
