<svg xmlns="http://www.w3.org/2000/svg" width="30.46" height="30.993" viewBox="0 0 30.46 30.993">
  <g id="Group_3" data-name="Group 3" transform="translate(-1585.536 -137.313)">
    <path id="Path_2" data-name="Path 2" d="M1599.792,146.445a8.1,8.1,0,1,1,8.109,8.094,8.078,8.078,0,0,1-8.109-8.094m7.025-1.476a.479.479,0,0,1,.042.315c0,.942-.005,1.884.007,2.827,0,.247-.045.352-.325.354a.993.993,0,0,0-.951,1.057,1.011,1.011,0,0,0,.972,1.013c.9.01,1.8.012,2.7,0a1.009,1.009,0,0,0,.954-1.029,1,1,0,0,0-.938-1.039c-.3,0-.34-.117-.338-.375q.015-2.351,0-4.7a1.02,1.02,0,0,0-1.324-1,12.725,12.725,0,0,0-1.5.6.964.964,0,0,0-.562.988,1.022,1.022,0,0,0,.7.931c.183.072.378.01.556.062" fill="#3a853f"/>
    <path id="Path_3" data-name="Path 3" d="M1588.445,160.678h17.521c.03-.127-.06-.2-.108-.292a15.607,15.607,0,0,1-1.115-2.521,1.02,1.02,0,0,1,.6-1.375,1.007,1.007,0,0,1,1.3.691,14.417,14.417,0,0,0,2.014,3.834,1.01,1.01,0,0,1,.131,1.157,1.033,1.033,0,0,1-1,.542c-1.525,0-3.05,0-4.575,0h-.381a5.6,5.6,0,0,1-2.425,4.594,5.382,5.382,0,0,1-3.571.984,5.623,5.623,0,0,1-5.215-5.54.557.557,0,0,0-.337-.037c-1.514,0-3.029-.007-4.544,0a1.079,1.079,0,0,1-1.086-.563,1.053,1.053,0,0,1,.173-1.181,14.189,14.189,0,0,0,2.767-8.612,26.121,26.121,0,0,1,.05-3.238,8.469,8.469,0,0,1,4.914-6.929c.094-.047.19-.089.3-.142-.046-.238-.1-.471-.135-.708a3.542,3.542,0,0,1,6.412-2.519,1,1,0,0,1-.208,1.412,1.015,1.015,0,0,1-1.414-.211,1.546,1.546,0,0,0-1.754-.63,1.519,1.519,0,0,0-1.01,1.811c.054.2.144.257.336.216a5.249,5.249,0,0,1,1.36-.062,1.019,1.019,0,0,1,1.046,1.041,1.036,1.036,0,0,1-1.095.993,6.59,6.59,0,0,0-6.235,3.982,6.162,6.162,0,0,0-.551,2.588c-.015,1.27.044,2.541-.05,3.811a16.148,16.148,0,0,1-1.929,6.556c-.054.1-.107.2-.185.347m12.324,2.052h-7.03a3.552,3.552,0,0,0,7.03,0" fill="#4d4d4d"/>
    <path id="Path_4" data-name="Path 4" d="M1606.817,144.969c-.178-.052-.373.01-.556-.062a1.022,1.022,0,0,1-.7-.931.964.964,0,0,1,.562-.988,12.725,12.725,0,0,1,1.5-.6,1.02,1.02,0,0,1,1.324,1q.009,2.351,0,4.7c0,.258.037.374.338.375a1,1,0,0,1,.938,1.039,1.009,1.009,0,0,1-.954,1.029c-.9.013-1.8.011-2.7,0a1.011,1.011,0,0,1-.972-1.013.993.993,0,0,1,.951-1.057c.28,0,.328-.107.325-.354-.012-.943,0-1.885-.007-2.827a.479.479,0,0,0-.042-.315" fill="#fff"/>
  </g>
</svg>
