<svg xmlns="http://www.w3.org/2000/svg" width="30.595" height="30.584" viewBox="0 0 30.595 30.584">
  <g id="Group_16" data-name="Group 16" transform="translate(-1529.189 -215.77)">
    <path id="Path_52" data-name="Path 52" d="M1546.755,215.77h1.254a2.144,2.144,0,0,0,.262.047,11.2,11.2,0,0,1,3.952.946,12.125,12.125,0,0,1,7.393,9.537,11.825,11.825,0,0,1-.826,6.719,12.22,12.22,0,0,1-6.935,6.74,11.68,11.68,0,0,1-5.891.725,12.23,12.23,0,0,1-4.6-1.555c-.474-.272-.6-.245-.991.142q-3,3-6,6a4.805,4.805,0,0,1-1.073.847,2.615,2.615,0,0,1-3.441-.456,3.1,3.1,0,0,1-.671-1.309v-.717a5.451,5.451,0,0,1,1.823-2.793c1.736-1.714,3.453-3.446,5.178-5.171.718-.718.777-.63.235-1.657a11.52,11.52,0,0,1-.949-9.129,12.082,12.082,0,0,1,9.981-8.745c.428-.078.865-.113,1.3-.168m9.788,12.41a9.165,9.165,0,1,0-9.189,9.16,9.159,9.159,0,0,0,9.189-9.16" fill="#4d4d4d"/>
    <path id="Path_53" data-name="Path 53" d="M1547.859,220.74a8.3,8.3,0,0,1,3.158.618,1.274,1.274,0,0,1,.753,1.636,1.256,1.256,0,0,1-1.628.759,5.835,5.835,0,0,0-2.505-.439,5.422,5.422,0,0,0-4.645,3.076,1.831,1.831,0,0,1-.685.875,1.274,1.274,0,0,1-1.783-1.648,7.925,7.925,0,0,1,2.363-3.1,8.043,8.043,0,0,1,4.972-1.777" fill="#4d4d4d"/>
  </g>
</svg>
