<svg xmlns="http://www.w3.org/2000/svg" width="50.056" height="50.056" viewBox="0 0 50.056 50.056">
  <g id="Group_23" data-name="Group 23" transform="translate(-1608.624 -2560.917)">
    <path id="Path_64" data-name="Path 64" d="M1644.566,2608.2a3.663,3.663,0,0,1-2.506,2.771" fill="#3a853f"/>
    <path id="Path_65" data-name="Path 65" d="M1642.06,2610.973h-1.075a3.487,3.487,0,0,1-2.451-2.524c-1.786-5.471-3.623-10.925-5.454-16.38a.881.881,0,0,1,.141-.888q5.359-7.635,10.7-15.284c.1-.151.2-.308.325-.5a.792.792,0,0,0-.479.235q-7.725,5.357-15.441,10.726a.869.869,0,0,1-.885.124c-5.379-1.807-10.754-3.623-16.151-5.376a3.582,3.582,0,0,1-2.665-2.495v-1.075a3.394,3.394,0,0,1,2.45-2.4c3.464-1.07,6.908-2.207,10.359-3.318q14.7-4.731,29.393-9.465c1.449-.467,2.89-.959,4.335-1.439h1.075c.211.076.426.145.633.23a3.156,3.156,0,0,1,1.811,2.214v.978q-.113.345-.224.692" fill="#3a853f"/>
  </g>
</svg>
