<svg xmlns="http://www.w3.org/2000/svg" width="23.758" height="23.753" viewBox="0 0 23.758 23.753">
  <g id="Group_14" data-name="Group 14" transform="translate(-270.514 -792.915)">
    <path id="Path_44" data-name="Path 44" d="M283.133,792.915q.663.09,1.328.182c.084.012.167.029.25.047a.464.464,0,1,1-.175.909,10.007,10.007,0,0,0-2.235-.207,10.972,10.972,0,0,0-8.7,17.471c.044.063.093.123.149.2a2.29,2.29,0,0,1,.957-.228,1.948,1.948,0,1,1-1.338,3.377,1.919,1.919,0,0,1-.419-2.291.349.349,0,0,0-.043-.441,11.739,11.739,0,0,1-2.356-6.241,1.791,1.791,0,0,0-.038-.2v-1.438c.085-.524.125-1.055.224-1.578a11.9,11.9,0,0,1,9.583-9.373c.44-.073.884-.123,1.327-.183Zm-7.423,20.318a1.02,1.02,0,0,0-2.04-.012,1.02,1.02,0,1,0,2.04.012" fill="#3a853f"/>
    <path id="Path_45" data-name="Path 45" d="M278.717,811.141c-.2.205-.378.407-.57.6a.471.471,0,0,1-.749,0q-.98-.972-1.951-1.952a.473.473,0,0,1,0-.764c.191-.191.392-.37.587-.555a7.472,7.472,0,0,1-.7-1.652c-.031-.111-.1-.117-.192-.117-.232,0-.464.006-.7,0a.459.459,0,0,1-.5-.5q-.006-1.4,0-2.807a.455.455,0,0,1,.5-.508c.232-.006.464,0,.7,0,.089,0,.164,0,.2-.114a7.193,7.193,0,0,1,.7-1.659c-.2-.182-.4-.359-.589-.55a.475.475,0,0,1,0-.765q.965-.97,1.936-1.935a.481.481,0,0,1,.782,0c.154.152.311.3.458.461a.163.163,0,0,0,.237.036,6.668,6.668,0,0,1,1.472-.611.167.167,0,0,0,.145-.2q-.009-.359,0-.719a.447.447,0,0,1,.478-.48q1.427-.008,2.853,0a.453.453,0,0,1,.486.5c0,.231,0,.464,0,.7,0,.091.006.163.115.193a7.194,7.194,0,0,1,1.656.7c.179-.191.353-.388.537-.573a.477.477,0,0,1,.781-.013q.971.965,1.936,1.934a.485.485,0,0,1-.009.784c-.173.177-.349.351-.522.527a.229.229,0,0,0-.026.056,7.339,7.339,0,0,1,.672,1.607c.03.11.1.12.191.119.24,0,.48-.005.719,0a.448.448,0,0,1,.482.478q.008,1.425,0,2.852a.456.456,0,0,1-.5.488c-.24.007-.48.005-.719,0a.155.155,0,0,0-.18.132,7.262,7.262,0,0,1-.7,1.633c.188.177.382.353.568.537a.491.491,0,0,1,0,.816q-.942.944-1.886,1.886a.494.494,0,0,1-.816.007l-.528-.522a.232.232,0,0,0-.05-.024,7.229,7.229,0,0,1-1.59.669c-.118.033-.139.1-.137.2,0,.24.006.479,0,.719a.448.448,0,0,1-.478.481q-1.427.009-2.853,0a.454.454,0,0,1-.486-.5c0-.231-.006-.463,0-.7a.179.179,0,0,0-.153-.212,7.339,7.339,0,0,1-1.611-.686m-2.309-10.959a.462.462,0,0,0,.028.043c.142.142.284.283.425.427a.5.5,0,0,1,.092.741,6.5,6.5,0,0,0-.806,1.936c-.088.368-.225.469-.6.477a3.516,3.516,0,0,0-.658.021v1.944c.246,0,.476,0,.707,0a.477.477,0,0,1,.539.43,6.729,6.729,0,0,0,.83,2,.479.479,0,0,1-.091.7c-.165.161-.343.308-.492.44l1.438,1.438c.15-.159.309-.338.479-.505a.461.461,0,0,1,.647-.082,6.694,6.694,0,0,0,2.021.842.489.489,0,0,1,.44.558c0,.23,0,.459,0,.694h1.966c0-.241,0-.465,0-.689a.486.486,0,0,1,.435-.559,6.625,6.625,0,0,0,2-.831.471.471,0,0,1,.685.078c.168.168.32.352.454.5.5-.5.953-.956,1.43-1.433-.155-.148-.331-.308-.5-.48a.467.467,0,0,1-.079-.648,6.741,6.741,0,0,0,.849-2.042.472.472,0,0,1,.529-.414c.236,0,.473,0,.717,0V803.8c-.248,0-.486.005-.723,0a.475.475,0,0,1-.524-.422,6.708,6.708,0,0,0-.839-2.022.469.469,0,0,1,.074-.666c.169-.17.351-.325.516-.477-.492-.49-.951-.945-1.44-1.431-.14.152-.287.321-.444.479a.489.489,0,0,1-.722.09,6.571,6.571,0,0,0-1.979-.822.487.487,0,0,1-.44-.555c0-.229,0-.458,0-.69h-1.966c0,.235,0,.458,0,.68a.494.494,0,0,1-.453.57,6.681,6.681,0,0,0-1.978.823.479.479,0,0,1-.7-.09c-.159-.165-.3-.345-.452-.515l-1.414,1.426" fill="#3a853f"/>
    <path id="Path_46" data-name="Path 46" d="M291.02,798.082a1.989,1.989,0,0,1-2.6-.725,1.948,1.948,0,0,1,2.82-2.576,1.989,1.989,0,0,1,.479,2.662,12.356,12.356,0,0,1,1.444,2.362A11.882,11.882,0,0,1,284.91,816.4a12.04,12.04,0,0,1-4.675.076c-.061-.011-.121-.023-.181-.039a.462.462,0,1,1,.183-.906,10.184,10.184,0,0,0,2.281.206,10.97,10.97,0,0,0,8.652-17.481c-.035-.051-.074-.1-.113-.147a.125.125,0,0,0-.037-.026m-.935-.713a1.02,1.02,0,1,0-1.014-1.017,1.022,1.022,0,0,0,1.014,1.017" fill="#3a853f"/>
    <path id="Path_47" data-name="Path 47" d="M287.123,794.194a.467.467,0,0,1-.461.475.476.476,0,0,1-.463-.454.463.463,0,0,1,.441-.469.457.457,0,0,1,.483.448" fill="#3a853f"/>
    <path id="Path_48" data-name="Path 48" d="M278.6,815.387a.45.45,0,0,1-.454.456.46.46,0,0,1-.466-.448.472.472,0,0,1,.47-.473.46.46,0,0,1,.45.465" fill="#3a853f"/>
    <path id="Path_49" data-name="Path 49" d="M286.222,804.671a3.834,3.834,0,1,1-3.952-3.712,3.843,3.843,0,0,1,3.952,3.712m-.924.128a2.908,2.908,0,1,0-2.916,2.9,2.923,2.923,0,0,0,2.916-2.9" fill="#3a853f"/>
  </g>
</svg>
