<svg xmlns="http://www.w3.org/2000/svg" width="50.333" height="42.107" viewBox="0 0 50.333 42.107">
  <path id="Path_60" data-name="Path 60" d="M1333.96,2713.7a21.38,21.38,0,0,0,11.8-2.559,6.062,6.062,0,0,0,2.4-1.807c-4.34-.745-7.55-2.834-9.189-7.047,1.137-.6,2.416.149,3.624-.739-4.5-1.918-7.242-5.012-7.484-10.1,1.476.17,2.609.967,4.2.81-4.081-4-5.367-8.406-2.9-13.563.884.067,1.154.71,1.568,1.145a30.319,30.319,0,0,0,18.329,9.349c2,.277,1.992.232,1.954-1.767a10.187,10.187,0,0,1,6.143-10.037c4.033-1.936,7.87-1.216,11.3,1.587a2.15,2.15,0,0,0,2.224.424,30.323,30.323,0,0,0,5.108-2.079c-.506,2.412-2.052,3.748-3.624,5.3,1.742.251,3.092-.771,4.885-.87a9.9,9.9,0,0,1-3.122,3.635c-1.507,1.029-1.757,2.31-1.806,3.992-.357,12.407-8.986,24.846-22.31,28.065a30.591,30.591,0,0,1-21.7-2.431c-.508-.258-1.221-.382-1.4-1.31" transform="translate(-1333.96 -2676.294)" fill="#fff"/>
</svg>
