<svg xmlns="http://www.w3.org/2000/svg" width="51.846" height="38.914" viewBox="0 0 51.846 38.914">
  <path id="Path_61" data-name="Path 61" d="M1535.317,2677.891c5.029.052,10.549.028,16.068.431,6.289.46,7.924,3.9,8.689,8.478.975,5.843.6,11.736.43,17.6a20.771,20.771,0,0,1-1.327,6.835,7.166,7.166,0,0,1-6.506,4.887,239.793,239.793,0,0,1-35.8.018,7.533,7.533,0,0,1-6.905-6.035,33.026,33.026,0,0,1-1.06-8.383c.08-4.886-.333-9.785.5-14.648a16.7,16.7,0,0,1,1.23-4.387c1.3-2.745,3.654-3.964,6.554-4.264,5.864-.606,11.751-.511,18.127-.537m9.685,19.65c0-.169,0-.337,0-.506l-16.556-8.244v17.047l16.557-8.3" transform="translate(-1508.872 -2677.891)" fill="#fff"/>
</svg>
